<?xml version="1.0" standalone="no"?>
<!DOCTYPE svg PUBLIC "-//W3C//DTD SVG 20010904//EN"
 "http://www.w3.org/TR/2001/REC-SVG-20010904/DTD/svg10.dtd">
<svg version="1.0" xmlns="http://www.w3.org/2000/svg"
 width="633.000000pt" height="119.000000pt" viewBox="0 0 633.000000 119.000000"
 preserveAspectRatio="xMidYMid meet">
<metadata>
Created by potrace 1.16, written by Peter Selinger 2001-2019
</metadata>
<g transform="translate(0.000000,119.000000) scale(0.100000,-0.100000)"
fill="#000000" stroke="none">
<path d="M0 595 l0 -595 670 0 670 0 0 360 0 360 -40 0 c-39 0 -40 1 -40 35 0
34 1 35 40 35 l40 0 0 200 0 200 -670 0 -670 0 0 -595z"/>
<path d="M1710 787 c-29 -15 -33 -45 -8 -61 14 -8 22 -7 35 7 15 15 16 20 5
38 -11 18 -11 20 0 17 18 -6 22 -46 8 -64 -16 -18 -54 -18 -70 1 -7 8 -10 26
-8 40 5 25 5 25 -73 25 l-79 0 0 -35 c0 -35 0 -35 -45 -35 l-45 0 0 -135 c0
-83 -4 -135 -10 -135 -6 0 -10 -45 -10 -115 l0 -115 30 0 c30 0 30 1 30 55 l0
55 136 -1 136 0 -5 -27 -6 -27 12 28 c7 18 18 27 33 27 15 0 26 -9 32 -27 l10
-28 1 27 c1 27 2 27 66 27 38 -1 65 -5 65 -11 0 -7 4 -7 13 0 6 5 38 10 69 11
56 1 57 0 56 -27 -1 -15 2 -34 6 -43 4 -10 1 -22 -8 -31 -21 -22 -295 -22
-303 -1 -5 13 -7 13 -15 -1 -5 -9 -16 -16 -23 -16 -8 0 -15 -4 -15 -10 0 -7
267 -10 780 -10 l780 0 0 75 c0 68 2 75 20 75 18 0 20 -7 20 -75 l0 -75 1040
0 c825 0 1040 3 1040 13 0 9 -57 12 -255 11 l-255 -1 0 58 c0 55 2 59 23 59
13 0 28 -5 35 -12 9 -9 12 -9 12 0 0 8 26 12 85 12 56 0 85 -4 85 -11 0 -8 4
-8 14 1 8 6 23 11 33 10 10 -1 64 -2 121 -1 l102 1 0 235 0 235 -120 0 -120 0
0 -54 0 -55 30 10 c24 9 37 7 67 -8 46 -22 63 -53 63 -116 0 -79 -43 -131
-107 -129 -15 1 -54 1 -85 2 l-58 0 0 175 0 175 -150 0 -150 0 0 -175 0 -175
-40 0 -40 0 0 175 0 175 -42 -1 c-28 -1 -34 -3 -18 -6 38 -7 49 -20 41 -51 -7
-26 -10 -27 -60 -24 -63 5 -95 -13 -111 -63 -9 -27 -9 -43 0 -70 17 -50 48
-68 112 -63 l53 3 0 -35 c0 -33 -2 -35 -44 -42 -123 -21 -211 48 -211 166 0
92 43 150 128 176 15 5 -522 8 -1193 8 -776 0 -1208 -3 -1187 -9 33 -10 36
-17 26 -56 -5 -19 -11 -21 -59 -16 -50 5 -56 4 -84 -25 -25 -24 -31 -39 -31
-72 0 -33 6 -48 31 -72 28 -29 34 -30 84 -25 53 5 54 5 60 -25 8 -35 0 -43
-57 -52 -46 -7 -111 8 -149 35 -32 23 -59 85 -59 137 0 46 36 119 71 145 15
10 42 23 60 27 21 5 -33 8 -146 9 -127 0 -187 -3 -205 -12z m2045 -9 c4 -4 4
-20 0 -36 -6 -30 -7 -30 -70 -29 -54 2 -67 -1 -89 -22 -21 -20 -26 -34 -26
-70 1 -64 35 -101 94 -101 22 0 26 5 26 29 0 25 -4 30 -27 33 -24 3 -28 8 -28
33 l0 30 65 0 65 0 3 -88 c3 -86 2 -87 -23 -97 -15 -6 -54 -10 -88 -10 -77 0
-124 23 -155 76 -32 55 -28 147 10 196 41 53 81 69 165 66 39 -2 75 -6 78 -10z
m-667 -51 c3 -26 5 -27 71 -27 l67 0 20 -62 20 -63 20 60 c20 60 21 60 62 63
25 2 42 -1 42 -7 0 -16 -75 -211 -99 -259 -32 -64 -110 -105 -125 -66 -12 31
-6 48 26 74 l32 27 -41 104 c-23 57 -42 94 -42 82 -1 -18 -7 -23 -26 -23 -24
0 -25 -3 -25 -55 0 -52 1 -55 25 -55 22 0 25 -4 25 -34 0 -30 -4 -35 -28 -41
-36 -7 -78 8 -91 34 -6 11 -11 49 -11 84 0 56 -3 65 -20 70 -27 7 -28 57 -1
64 11 3 21 15 23 26 2 13 13 24 28 28 36 10 45 6 48 -24z m-1433 -61 c0 -34
-3 -40 -23 -41 -34 -3 -42 -21 -42 -102 l0 -73 -40 0 -40 0 0 115 c0 63 1 118
3 123 1 4 23 7 49 7 26 1 51 4 55 8 19 19 38 1 38 -37z m720 30 c106 -45 97
-209 -13 -245 -38 -12 -48 -11 -89 4 -37 14 -49 25 -65 61 -32 73 -4 149 66
180 40 17 59 17 101 0z m557 -13 c27 -24 40 -79 36 -158 l-3 -70 -40 0 -40 0
-5 85 c-5 83 -6 85 -30 85 -24 0 -25 -2 -30 -85 l-5 -85 -40 0 -40 0 0 120 0
120 53 1 c28 0 55 4 59 8 11 11 64 -2 85 -21z m1306 16 c46 -16 63 -62 60
-161 l-3 -83 -40 0 -40 0 -3 83 c-2 62 -7 84 -18 89 -31 12 -44 -16 -44 -98
l0 -79 -40 0 -40 0 0 115 c0 63 1 118 3 123 1 4 26 7 55 8 28 0 55 4 59 7 9 9
15 9 51 -4z m-2483 -124 l0 -120 -40 0 -40 0 -3 109 c-1 61 0 116 3 123 3 10
17 13 42 11 l38 -3 0 -120z m803 37 c2 -62 7 -84 18 -89 31 -12 44 16 44 98
l0 79 40 0 40 0 0 -126 0 -126 -42 3 c-24 2 -57 0 -75 -5 -43 -10 -88 14 -102
55 -12 35 -15 182 -4 193 4 4 23 6 43 4 l35 -3 3 -83z m1330 0 c2 -62 7 -84
18 -89 31 -12 44 16 44 98 l0 79 40 0 40 0 0 -126 0 -126 -42 3 c-24 2 -57 0
-75 -5 -43 -10 -88 14 -102 55 -12 35 -15 182 -4 193 4 4 23 6 43 4 l35 -3 3
-83z m1012 21 c0 -92 7 -115 34 -111 19 3 21 11 26 88 l5 85 40 0 40 0 3 -123
3 -122 -53 -1 c-29 0 -70 -1 -91 -1 -27 -1 -44 5 -60 21 -19 19 -22 34 -25
126 l-4 105 41 0 41 0 0 -67z m-2982 -45 l-3 -33 -65 0 -65 0 -3 33 -3 32 71
0 71 0 -3 -32z m344 -275 c17 -15 18 -15 18 0 0 30 47 21 58 -10 l10 -28 1 27
1 26 102 1 c59 0 108 -5 115 -11 8 -6 13 -7 13 -1 0 6 29 11 64 11 l64 1 -1
-57 -2 -57 -60 -1 c-33 0 -65 3 -72 8 -7 5 -14 5 -18 -2 -8 -12 -95 -11 -112
2 -7 5 -14 5 -18 -1 -10 -17 -106 -11 -112 6 -5 13 -7 13 -15 -1 -11 -19 -68
-22 -68 -3 0 8 -3 8 -9 -2 -16 -25 -41 -4 -42 36 l-2 38 -6 -40 c-5 -31 -10
-40 -26 -40 -16 0 -21 8 -23 35 -2 19 -8 39 -13 45 -5 5 -9 15 -9 22 0 21 138
18 162 -4z m605 -5 c5 -18 6 -18 20 2 12 17 25 20 84 20 l69 0 0 -40 c0 -29 4
-40 15 -40 11 0 15 11 15 40 l0 40 100 -1 c106 -1 111 -4 85 -49 -8 -14 -14
-35 -15 -47 0 -14 -6 -23 -15 -23 -16 0 -19 5 -29 53 -10 44 -36 34 -36 -14 0
-33 -3 -40 -17 -37 -12 2 -20 16 -24 43 l-5 40 -5 -40 -4 -40 -120 -1 c-97 -1
-122 1 -132 14 -11 13 -13 13 -19 -1 -10 -26 -44 -21 -45 6 l0 22 -10 -23 c-5
-15 -16 -22 -26 -20 -14 2 -19 15 -21 60 l-3 58 67 -1 c57 -1 67 -4 71 -21z
m564 -5 c6 -16 13 -43 16 -60 5 -28 3 -33 -15 -33 -11 0 -23 7 -26 17 -6 15
-8 14 -20 -2 -8 -11 -20 -16 -29 -12 -14 5 -14 11 -2 52 18 59 22 65 46 65 12
0 24 -10 30 -27z m272 14 c6 -9 10 -9 14 1 3 9 39 12 127 12 l123 0 1 -61 0
-60 -36 3 c-35 3 -37 5 -41 43 l-5 40 -5 -40 c-6 -37 -8 -40 -41 -42 -21 -1
-39 4 -46 13 -10 12 -12 12 -17 1 -3 -9 -21 -14 -47 -14 -33 0 -43 4 -49 20
-8 20 -8 20 -13 -1 -5 -19 -12 -21 -62 -20 -51 1 -56 4 -56 24 0 17 -4 21 -20
17 -11 -3 -20 -14 -20 -25 0 -13 -6 -18 -17 -16 -14 2 -19 15 -21 60 l-3 57
113 0 c74 -1 116 -5 121 -12z m415 -29 c4 -51 22 -49 22 2 0 33 3 40 20 40 17
0 20 -7 22 -42 l1 -43 4 43 4 42 53 0 c63 0 75 -11 73 -65 -2 -34 -6 -41 -30
-49 -20 -7 -34 -7 -47 2 -11 6 -22 8 -25 3 -3 -5 -46 -10 -97 -10 -104 -1
-128 10 -128 64 0 44 17 56 75 53 50 -3 50 -3 53 -40z m519 30 c8 -7 13 -7 13
0 0 14 199 16 216 1 19 -16 18 -69 -3 -91 -20 -22 -56 -23 -73 -3 -11 14 -14
13 -25 -2 -19 -26 -45 -9 -45 31 0 21 -6 36 -15 40 -12 4 -15 -3 -15 -35 0
-43 -19 -60 -44 -40 -10 8 -16 9 -21 1 -3 -5 -29 -10 -57 -10 -41 0 -51 3 -55
20 -3 11 -11 20 -18 20 -7 0 -15 -9 -18 -20 -5 -20 -37 -29 -37 -10 0 6 -10 5
-25 -2 -54 -24 -104 37 -71 87 14 21 21 23 147 23 82 1 138 -3 146 -10z"/>
<path d="M3585 766 c-120 -54 -126 -243 -9 -292 39 -16 121 -18 158 -4 25 9
26 13 26 90 l0 80 -55 0 c-52 0 -55 -1 -55 -25 0 -20 5 -25 25 -25 23 0 25 -4
25 -40 0 -40 0 -40 -39 -40 -49 0 -87 29 -102 80 -10 32 -9 44 7 76 25 51 56
66 121 60 46 -4 52 -2 57 17 3 12 3 23 0 26 -12 12 -131 10 -159 -3z"/>
<path d="M3027 733 c-4 -3 -7 -15 -7 -25 0 -10 -7 -18 -15 -18 -9 0 -15 -9
-15 -25 0 -16 6 -25 15 -25 12 0 15 -15 15 -73 0 -86 14 -107 73 -107 33 0 37
3 37 25 0 20 -5 25 -25 25 -24 0 -25 2 -25 65 0 63 1 65 25 65 20 0 25 5 25
25 0 20 -5 25 -25 25 -20 0 -25 5 -25 25 0 20 -5 25 -23 25 -13 0 -27 -3 -30
-7z"/>
<path d="M3169 643 c10 -27 30 -77 45 -112 l26 -64 -36 -33 c-26 -25 -34 -39
-29 -54 8 -25 12 -25 52 0 36 21 68 79 113 198 15 42 31 85 35 95 6 14 1 17
-27 17 -35 0 -35 -1 -53 -67 -10 -38 -20 -72 -23 -76 -2 -5 -16 25 -30 67 -24
75 -25 76 -58 76 l-34 0 19 -47z"/>
<path d="M1520 575 l0 -115 30 0 30 0 0 73 c0 77 15 107 53 107 11 0 17 8 17
25 0 30 -33 35 -62 8 -17 -15 -18 -15 -18 0 0 11 -8 17 -25 17 l-25 0 0 -115z"/>
<path d="M2254 672 c-32 -25 -44 -55 -44 -105 0 -36 6 -51 29 -76 25 -27 36
-31 81 -31 43 0 56 4 80 29 80 79 32 201 -78 201 -29 0 -55 -7 -68 -18z m93
-30 c23 -15 34 -63 23 -98 -16 -47 -47 -57 -80 -24 -49 49 1 158 57 122z"/>
<path d="M2296 618 c-9 -12 -16 -32 -16 -43 0 -23 26 -65 40 -65 19 0 40 33
40 65 0 32 -21 65 -40 65 -5 0 -16 -10 -24 -22z"/>
<path d="M2748 575 l3 -115 30 0 29 0 0 79 c0 85 10 105 52 99 22 -3 23 -8 26
-90 l3 -88 29 0 30 0 0 93 c0 85 -2 96 -23 115 -28 26 -83 29 -109 5 -17 -15
-18 -15 -18 0 0 12 -9 17 -27 17 l-28 0 3 -115z"/>
<path d="M4080 575 l0 -115 30 0 30 0 0 78 c0 83 9 102 47 102 31 0 43 -33 43
-116 l0 -64 30 0 30 0 0 74 c0 83 -14 132 -40 146 -29 15 -81 12 -102 -7 -17
-15 -18 -15 -18 0 0 11 -8 17 -25 17 l-25 0 0 -115z"/>
<path d="M1680 575 l0 -115 30 0 30 0 0 115 0 115 -30 0 -30 0 0 -115z"/>
<path d="M2480 613 c0 -106 20 -147 73 -151 23 -2 48 3 63 13 21 14 24 14 24
0 0 -9 9 -15 25 -15 l25 0 0 115 0 115 -30 0 -30 0 0 -71 c0 -82 -11 -109 -46
-109 -32 0 -44 31 -44 116 l0 64 -30 0 -30 0 0 -77z"/>
<path d="M3810 613 c0 -106 20 -147 73 -151 23 -2 48 3 63 13 21 14 24 14 24
0 0 -9 9 -15 25 -15 l25 0 0 115 0 115 -30 0 -30 0 0 -71 c0 -82 -11 -109 -46
-109 -32 0 -44 31 -44 116 l0 64 -30 0 -30 0 0 -77z"/>
<path d="M4832 596 c2 -75 7 -98 22 -115 21 -23 74 -28 107 -11 13 7 19 7 19
0 0 -5 14 -10 30 -10 l30 0 0 115 0 115 -30 0 -30 0 0 -71 c0 -82 -11 -109
-45 -109 -34 0 -45 27 -45 109 l0 71 -31 0 -31 0 4 -94z"/>
<path d="M1790 590 c0 -18 7 -20 60 -20 53 0 60 2 60 20 0 18 -7 20 -60 20
-53 0 -60 -2 -60 -20z"/>
<path d="M2123 309 c12 -7 17 -22 17 -50 0 -24 4 -38 10 -34 6 3 10 24 10 45
0 21 6 41 13 43 6 3 -6 6 -28 6 -32 0 -36 -2 -22 -10z"/>
<path d="M2190 270 c0 -27 5 -50 10 -50 6 0 10 9 10 20 0 11 4 20 9 20 5 0 13
-9 16 -20 3 -11 10 -20 14 -20 6 0 6 25 2 93 -1 4 -14 7 -31 7 -29 0 -30 -1
-30 -50z m44 19 c-8 -14 -24 -10 -24 6 0 9 6 12 15 9 8 -4 12 -10 9 -15z"/>
<path d="M2281 283 c-15 -54 -14 -73 3 -50 17 22 25 22 42 0 21 -29 25 -9 8
40 -19 57 -39 60 -53 10z"/>
<path d="M2360 270 c0 -27 5 -50 10 -50 6 0 10 23 10 50 0 28 -4 50 -10 50 -5
0 -10 -22 -10 -50z"/>
<path d="M2401 268 c2 -48 2 -50 8 -18 l7 35 20 -32 c10 -18 22 -33 27 -33 4
0 6 24 6 53 -1 42 -3 46 -8 22 l-7 -30 -18 28 c-27 40 -36 33 -35 -25z"/>
<path d="M2490 270 c0 -27 5 -50 10 -50 6 0 10 23 10 50 0 28 -4 50 -10 50 -5
0 -10 -22 -10 -50z"/>
<path d="M2530 269 c0 -31 4 -48 10 -44 6 3 10 18 10 33 l0 27 20 -33 c11 -18
25 -30 30 -27 13 8 13 95 0 95 -5 0 -10 -15 -10 -32 l0 -33 -20 33 c-28 45
-40 40 -40 -19z"/>
<path d="M2632 308 c-22 -22 -15 -67 12 -80 33 -15 56 -4 56 27 0 19 -5 25
-21 25 -18 0 -19 -2 -9 -15 15 -18 7 -30 -15 -22 -30 12 -6 71 27 64 3 -1 10
1 14 6 4 4 -6 7 -22 7 -17 0 -35 -5 -42 -12z"/>
<path d="M2740 276 c0 -25 5 -48 10 -51 6 -3 10 3 10 14 0 14 6 21 20 21 11 0
20 5 20 10 0 6 -9 10 -20 10 -27 0 -25 18 3 30 20 8 19 9 -10 9 -32 1 -33 0
-33 -43z"/>
<path d="M2820 295 c-18 -47 -22 -75 -12 -75 5 0 12 7 16 15 3 8 12 15 21 15
8 0 15 -7 15 -15 0 -8 5 -15 10 -15 13 0 13 14 -2 61 -13 45 -34 51 -48 14z"/>
<path d="M2902 308 c-7 -7 -12 -24 -12 -40 0 -31 31 -54 58 -42 14 6 13 8 -8
13 -18 5 -26 15 -28 34 -3 26 4 32 36 28 6 -1 12 3 12 9 0 14 -43 13 -58 -2z"/>
<path d="M2970 276 c0 -25 5 -48 10 -51 6 -4 10 13 10 44 0 28 -4 51 -10 51
-5 0 -10 -20 -10 -44z"/>
<path d="M3010 270 c0 -46 2 -50 24 -50 14 0 28 5 31 10 3 6 -3 10 -14 10 -18
0 -21 6 -21 40 0 22 -4 40 -10 40 -5 0 -10 -22 -10 -50z"/>
<path d="M3080 270 c0 -27 5 -50 10 -50 6 0 10 20 10 45 0 33 4 45 15 45 11 0
15 -12 15 -45 0 -25 5 -45 10 -45 6 0 10 20 10 45 0 35 4 45 16 45 23 0 43
-29 44 -62 0 -16 5 -28 10 -28 6 0 10 9 10 20 0 12 7 34 15 50 16 32 3 43 -14
13 -9 -17 -10 -17 -16 0 -6 14 -19 17 -71 17 l-64 0 0 -50z"/>
<path d="M2922 273 c5 -26 38 -29 38 -4 0 15 -6 21 -21 21 -14 0 -19 -5 -17
-17z"/>
<path d="M3372 282 c-15 -48 -15 -62 -2 -62 6 0 10 7 10 15 0 21 27 19 39 -2
17 -32 23 -5 9 39 -19 57 -41 60 -56 10z"/>
<path d="M3480 270 c0 -27 5 -50 10 -50 6 0 10 9 10 20 0 11 6 20 14 20 7 0
19 7 26 15 17 20 -3 45 -36 45 -22 0 -24 -4 -24 -50z m32 8 c-9 -9 -12 -7 -12
12 0 19 3 21 12 12 9 -9 9 -15 0 -24z"/>
<path d="M3560 271 c0 -28 5 -51 10 -51 6 0 10 9 10 20 0 11 5 20 10 20 6 0
10 -6 10 -14 0 -8 4 -17 10 -21 5 -3 8 14 7 42 -2 44 -4 48 -29 51 -27 3 -28
2 -28 -47z m40 18 c0 -5 -4 -9 -10 -9 -5 0 -10 7 -10 16 0 8 5 12 10 9 6 -3
10 -10 10 -16z"/>
<path d="M3640 270 c0 -27 5 -50 10 -50 6 0 10 23 10 50 0 28 -4 50 -10 50 -5
0 -10 -22 -10 -50z"/>
<path d="M3674 295 c11 -44 25 -75 35 -75 10 0 44 90 37 98 -9 8 -26 -10 -26
-28 0 -32 -17 -32 -24 0 -3 17 -11 30 -17 30 -7 0 -9 -9 -5 -25z"/>
<path d="M3761 283 c-15 -54 -14 -73 3 -50 17 22 25 22 42 0 21 -29 25 -9 8
40 -19 57 -39 60 -53 10z"/>
<path d="M3833 309 c12 -7 17 -22 17 -50 0 -24 4 -38 10 -34 6 3 10 24 10 45
0 21 6 41 13 43 6 3 -6 6 -28 6 -32 0 -36 -2 -22 -10z"/>
<path d="M3900 270 c0 -49 1 -50 30 -50 17 0 30 5 30 10 0 6 -9 10 -20 10 -27
0 -25 28 3 33 l22 4 -22 2 c-13 0 -23 7 -23 15 0 8 10 17 23 19 16 3 13 5 -10
6 l-33 1 0 -50z"/>
<path d="M4012 308 c-22 -22 -14 -67 13 -80 19 -9 28 -9 37 0 9 9 7 12 -10 12
-13 0 -25 7 -29 16 -8 21 10 49 31 48 9 -1 16 2 16 7 0 13 -44 11 -58 -3z"/>
<path d="M4082 273 c3 -44 5 -48 31 -51 15 -2 27 1 27 7 0 6 -9 11 -20 11 -17
0 -20 7 -20 40 0 22 -5 40 -11 40 -6 0 -9 -19 -7 -47z"/>
<path d="M4150 281 c0 -78 62 -81 68 -2 2 24 -1 41 -7 41 -6 0 -11 -18 -11
-40 0 -29 -4 -40 -15 -40 -11 0 -15 11 -15 40 0 22 -4 40 -10 40 -5 0 -10 -17
-10 -39z"/>
<path d="M4240 270 c0 -53 10 -61 51 -40 14 8 18 18 15 43 -3 18 -5 35 -5 40
-1 4 -14 7 -31 7 -29 0 -30 -1 -30 -50z m44 19 c-8 -14 -24 -10 -24 6 0 9 6
12 15 9 8 -4 12 -10 9 -15z m6 -40 c0 -5 -7 -9 -15 -9 -8 0 -15 7 -15 15 0 9
6 12 15 9 8 -4 15 -10 15 -15z"/>
<path d="M4035 280 c-8 -14 3 -30 21 -30 8 0 14 9 14 20 0 21 -24 28 -35 10z"/>
<path d="M4362 308 c-19 -19 -15 -66 8 -78 40 -22 83 27 60 70 -12 22 -49 27
-68 8z m52 -23 c8 -22 -4 -46 -23 -43 -9 2 -17 15 -19 31 -3 21 1 27 16 27 11
0 22 -7 26 -15z"/>
<path d="M4380 270 c0 -11 5 -20 10 -20 6 0 10 9 10 20 0 11 -4 20 -10 20 -5
0 -10 -9 -10 -20z"/>
<path d="M4450 271 c0 -28 5 -51 10 -51 6 0 10 8 10 19 0 10 9 21 21 24 32 9
22 51 -13 55 -27 3 -28 2 -28 -47z m32 7 c-9 -9 -12 -7 -12 12 0 19 3 21 12
12 9 -9 9 -15 0 -24z"/>
<path d="M4530 270 c0 -46 2 -50 24 -50 14 0 28 5 31 10 3 6 -3 10 -14 10 -25
0 -28 27 -3 33 16 4 16 5 0 6 -10 0 -18 7 -18 15 0 8 8 17 18 19 10 3 6 5 -10
6 -27 1 -28 -1 -28 -49z"/>
<path d="M4600 269 c0 -31 4 -48 10 -44 6 3 10 18 10 33 l0 27 20 -33 c11 -18
25 -30 30 -27 13 8 13 95 0 95 -5 0 -10 -15 -10 -32 l0 -33 -20 33 c-28 45
-40 40 -40 -19z"/>
<path d="M4718 313 c6 -2 12 -22 12 -43 0 -21 5 -42 10 -45 6 -4 10 10 10 34
0 28 5 43 18 50 13 8 9 10 -23 10 -22 0 -34 -3 -27 -6z"/>
<path d="M4790 300 c-24 -44 10 -91 54 -74 20 8 32 52 19 73 -16 26 -60 26
-73 1z m58 -29 c-4 -32 -34 -40 -43 -11 -8 25 11 51 31 43 9 -3 14 -16 12 -32z"/>
<path d="M4815 280 c-8 -13 4 -32 16 -25 12 8 12 35 0 35 -6 0 -13 -4 -16 -10z"/>
<path d="M4710 625 l0 -165 30 0 30 0 0 165 0 165 -30 0 -30 0 0 -165z"/>
<path d="M5090 625 l0 -165 24 0 c13 0 26 5 28 11 3 9 9 9 25 0 27 -14 78 -14
104 -1 53 29 66 138 23 189 -21 26 -33 31 -69 31 -24 0 -47 -4 -50 -10 -15
-25 -25 -5 -25 50 l0 60 -30 0 -30 0 0 -165z m150 5 c23 -23 27 -78 8 -102
-31 -38 -83 -26 -93 22 -8 37 10 87 33 93 29 8 32 7 52 -13z"/>
<path d="M5174 616 c-3 -8 -4 -31 -2 -52 3 -36 5 -39 33 -39 37 0 55 39 37 80
-13 28 -59 35 -68 11z"/>
<path d="M1270 755 c0 -23 4 -25 45 -25 l45 0 0 -135 0 -135 30 0 30 0 0 135
0 135 45 0 c41 0 45 2 45 25 l0 25 -120 0 -120 0 0 -25z"/>
<path d="M2020 757 c-49 -32 -74 -81 -74 -142 0 -99 56 -155 156 -155 73 0 86
5 81 34 -4 21 -9 22 -58 18 -50 -4 -57 -2 -85 26 -26 26 -30 38 -30 82 0 44 4
56 30 82 28 28 35 30 85 26 47 -4 54 -2 59 15 8 32 -1 37 -68 37 -49 0 -71 -5
-96 -23z"/>
<path d="M4512 764 c-51 -26 -76 -69 -80 -139 -6 -109 54 -167 168 -163 62 3
65 4 65 28 0 23 -3 24 -53 21 -67 -3 -97 15 -113 69 -9 31 -9 49 0 80 15 50
54 73 119 69 44 -3 47 -2 47 21 0 24 -4 25 -60 27 -40 2 -71 -2 -93 -13z"/>
<path d="M3300 260 c0 -40 4 -70 10 -70 6 0 10 30 10 70 0 40 -4 70 -10 70 -6
0 -10 -30 -10 -70z"/>
<path d="M1480 270 c0 -27 5 -50 10 -50 6 0 10 8 10 19 0 10 10 22 23 26 l22
8 -22 4 c-13 2 -23 11 -23 18 0 7 10 16 23 18 16 3 13 5 -10 6 l-33 1 0 -50z"/>
<path d="M1550 270 c0 -27 5 -50 10 -50 6 0 10 23 10 50 0 28 -4 50 -10 50 -5
0 -10 -22 -10 -50z"/>
<path d="M1590 271 c0 -28 5 -51 10 -51 6 0 10 9 10 20 0 11 5 20 10 20 6 0
10 -6 10 -14 0 -8 4 -17 10 -21 5 -3 8 14 7 42 -2 44 -4 48 -29 51 -27 3 -28
2 -28 -47z m40 18 c0 -5 -4 -9 -10 -9 -5 0 -10 7 -10 16 0 8 5 12 10 9 6 -3
10 -10 10 -16z"/>
<path d="M1670 270 c0 -49 1 -50 30 -50 17 0 30 5 30 10 0 6 -9 10 -20 10 -25
0 -27 27 -2 33 16 4 16 5 0 6 -26 2 -22 29 5 34 16 3 13 5 -10 6 l-33 1 0 -50z"/>
<path d="M1751 283 c-15 -54 -14 -73 3 -50 17 22 25 22 42 0 21 -29 25 -9 8
40 -19 57 -39 60 -53 10z"/>
<path d="M1830 271 c0 -28 5 -51 10 -51 6 0 10 9 10 20 0 11 5 20 10 20 6 0
10 -6 10 -14 0 -8 4 -17 10 -21 5 -3 8 14 7 42 -2 44 -4 48 -29 51 -27 3 -28
2 -28 -47z m40 18 c0 -5 -4 -9 -10 -9 -5 0 -10 7 -10 16 0 8 5 12 10 9 6 -3
10 -10 10 -16z"/>
<path d="M1910 268 c0 -50 12 -57 23 -13 4 18 5 18 6 -2 1 -32 25 -29 38 5
l11 27 1 -32 c1 -40 21 -45 21 -5 0 37 -10 72 -21 72 -5 0 -14 -12 -20 -27
l-11 -28 -10 28 c-17 47 -38 34 -38 -25z"/>
<path d="M2023 303 c-4 -11 1 -22 15 -31 28 -19 28 -32 0 -32 -16 0 -19 -3
-11 -11 16 -16 53 -1 53 21 0 11 -9 24 -20 30 -23 12 -18 32 5 23 8 -3 15 0
15 6 0 18 -50 13 -57 -6z"/>
<path d="M4910 270 c0 -54 19 -71 21 -17 1 29 2 29 8 8 9 -35 27 -37 39 -4
l10 28 1 -32 c2 -54 21 -37 21 17 0 39 -3 50 -16 50 -9 0 -18 -9 -21 -20 -3
-11 -9 -20 -13 -20 -4 0 -10 9 -13 20 -3 11 -12 20 -21 20 -13 0 -16 -11 -16
-50z"/>
<path d="M5030 270 c0 -46 2 -50 24 -50 14 0 28 5 31 10 3 6 -3 10 -14 10 -25
0 -28 27 -3 33 16 4 16 5 0 6 -10 0 -18 7 -18 15 0 8 8 17 18 19 10 3 6 5 -10
6 -27 1 -28 -1 -28 -49z"/>
<path d="M5100 268 c0 -50 12 -57 23 -13 4 18 5 18 6 -2 1 -32 25 -29 38 5
l11 27 1 -32 c1 -40 21 -45 21 -5 0 37 -10 72 -21 72 -5 0 -14 -12 -20 -27
l-11 -28 -10 28 c-17 47 -38 34 -38 -25z"/>
<path d="M5210 276 c0 -50 8 -59 44 -50 23 5 25 11 23 48 -2 38 -4 41 -34 44
-33 3 -33 3 -33 -42z m41 11 c-13 -13 -26 -3 -16 12 3 6 11 8 17 5 6 -4 6 -10
-1 -17z m9 -38 c0 -5 -7 -9 -15 -9 -15 0 -20 12 -9 23 8 8 24 -1 24 -14z"/>
<path d="M5292 273 c3 -44 5 -48 31 -51 15 -2 27 1 27 7 0 6 -9 11 -20 11 -27
0 -25 18 3 30 l22 9 -22 0 c-13 1 -23 6 -23 11 0 6 10 15 23 20 20 8 19 9 -11
9 l-33 1 3 -47z"/>
<path d="M5370 270 c0 -32 4 -49 10 -45 6 3 10 14 10 23 0 13 5 11 20 -8 l19
-25 -2 50 c-2 47 -4 50 -29 53 -27 3 -28 2 -28 -48z m40 19 c0 -5 -4 -9 -10
-9 -5 0 -10 7 -10 16 0 8 5 12 10 9 6 -3 10 -10 10 -16z"/>
<path d="M5446 305 c-3 -9 3 -23 14 -32 26 -23 25 -33 -2 -33 -17 0 -19 -3
-10 -12 9 -9 18 -9 37 0 32 15 32 27 0 48 -26 17 -26 37 0 27 8 -3 15 0 15 6
0 17 -47 13 -54 -4z"/>
<path d="M5507 300 c-3 -11 -1 -23 5 -26 5 -3 7 -17 4 -30 -4 -13 -2 -24 3
-24 4 0 11 12 15 28 3 15 8 37 12 50 5 17 2 22 -14 22 -11 0 -22 -8 -25 -20z"/>
<path d="M5560 295 c-18 -47 -22 -75 -12 -75 5 0 12 7 16 15 3 8 12 15 21 15
8 0 15 -7 15 -15 0 -8 4 -15 9 -15 5 0 8 23 8 51 -1 33 -3 45 -8 33 -7 -17 -8
-17 -8 -1 -1 26 -30 20 -41 -8z"/>
<path d="M5641 268 c2 -48 2 -50 8 -18 l7 35 20 -32 c10 -18 22 -33 27 -33 4
0 6 24 6 53 -1 42 -3 46 -8 22 l-7 -30 -18 28 c-27 40 -36 33 -35 -25z"/>
<path d="M5730 272 l0 -49 58 0 57 -1 0 49 c0 37 -4 49 -15 49 -12 0 -15 -9
-12 -39 2 -21 -1 -42 -7 -45 -7 -5 -9 3 -5 23 8 39 -9 61 -47 61 -28 0 -29 -2
-29 -48z m53 16 c13 -20 2 -48 -18 -48 -11 0 -15 10 -15 36 0 37 14 42 33 12z"/>
<path d="M5760 269 c0 -11 5 -17 10 -14 6 3 10 13 10 21 0 8 -4 14 -10 14 -5
0 -10 -9 -10 -21z"/>
<path d="M5862 308 c-22 -22 -15 -67 12 -80 33 -15 56 -4 56 27 0 19 -5 25
-21 25 -18 0 -19 -2 -9 -15 15 -18 7 -30 -15 -22 -30 12 -6 71 27 64 3 -1 10
1 14 6 4 4 -6 7 -22 7 -17 0 -35 -5 -42 -12z"/>
<path d="M5948 272 c-3 -44 -1 -47 22 -49 14 -1 31 3 38 9 14 12 16 88 2 88
-5 0 -10 -18 -10 -40 0 -29 -4 -40 -15 -40 -11 0 -15 11 -15 40 0 56 -17 50
-22 -8z"/>
<path d="M5983 285 c0 -22 2 -30 4 -17 2 12 2 30 0 40 -3 9 -5 -1 -4 -23z"/>
<path d="M6040 270 c0 -49 1 -50 30 -50 17 0 30 5 30 10 0 6 -9 10 -20 10 -25
0 -27 27 -2 33 16 4 16 5 0 6 -26 2 -22 29 5 34 16 3 13 5 -10 6 l-33 1 0 -50z"/>
<path d="M6114 305 c-4 -8 -1 -21 5 -29 6 -7 8 -16 4 -20 -4 -4 0 -4 10 0 10
3 17 1 17 -5 0 -6 -9 -11 -21 -11 -11 0 -18 -4 -15 -9 3 -5 22 -9 41 -8 33 1
35 3 35 34 0 18 -4 33 -8 33 -5 0 -8 -12 -7 -27 1 -16 0 -20 -2 -10 -2 9 -13
22 -24 28 -26 13 -18 24 20 27 30 2 31 1 31 -43 0 -25 5 -45 10 -45 6 0 10 20
10 44 0 34 4 46 18 49 9 3 -14 5 -51 6 -52 1 -69 -3 -73 -14z"/>
<path d="M6256 305 c-3 -9 3 -23 14 -32 26 -23 25 -33 -2 -33 -17 0 -19 -3
-10 -12 9 -9 18 -9 37 0 32 15 32 27 0 48 -26 17 -26 37 0 27 8 -3 15 0 15 6
0 17 -47 13 -54 -4z"/>
<path d="M1510 235 c0 -8 7 -15 15 -15 8 0 15 7 15 15 0 8 -7 15 -15 15 -8 0
-15 -7 -15 -15z"/>
<path d="M5575 230 c-3 -5 -1 -10 4 -10 6 0 11 5 11 10 0 6 -2 10 -4 10 -3 0
-8 -4 -11 -10z"/>
</g>
</svg>
